<?xml version="1.0" encoding="UTF-8"?>
<svg version="1.1" xmlns="http://www.w3.org/2000/svg" width="1024" height="1024">
<path d="M0 0 C337.92 0 675.84 0 1024 0 C1024 337.92 1024 675.84 1024 1024 C686.08 1024 348.16 1024 0 1024 C0 686.08 0 348.16 0 0 Z " fill="#0B1322" transform="translate(0,0)"/>
<path d="M0 0 C6.07742914 4.77448631 11.39460217 10.37220303 16.8236084 15.85746765 C18.12912862 17.16605154 19.43524575 18.47404017 20.7419281 19.78146362 C23.46020933 22.50431786 26.17354223 25.23196994 28.88293457 27.96366882 C32.359678 31.46889 35.84522335 34.96519224 39.33400822 38.45842457 C42.02215768 41.15072105 44.70746467 43.84583633 47.39172173 46.54201317 C48.67711279 47.83310487 49.9629756 49.12372707 51.24931526 50.41387367 C53.03722307 52.20862962 54.82169777 54.00672482 56.60510254 55.80595398 C57.13749039 56.33945969 57.66987823 56.87296539 58.21839905 57.42263794 C61.23588664 60.47577257 62.76579097 62.16966852 63.5333252 66.43632507 C62.69615494 72.29651683 59.26695195 74.8295379 55.0579834 78.76371765 C54.2485881 79.55134995 53.43919281 80.33898224 52.60527039 81.15048218 C50.01575176 83.66778036 47.40461367 86.16085946 44.78845215 88.6504364 C42.19178191 91.1307982 39.60097896 93.6162046 37.02519226 96.11825562 C35.42390993 97.6729724 33.81065476 99.21548702 32.18367004 100.74328613 C24.98772074 107.71597244 20.86925137 113.97848903 20.38000488 124.17704773 C20.36604181 126.75800205 20.37709606 129.33917956 20.4095459 131.91996765 C20.40657905 133.3061812 20.40083608 134.69239128 20.39247131 136.07858276 C20.37189884 140.43609246 20.3913379 144.79296876 20.41345215 149.1504364 C20.43462219 154.2223324 20.43909317 159.2935864 20.41295052 164.36546898 C20.40960388 166.38498107 20.43074543 168.40324326 20.45335388 170.42260742 C20.44977371 171.65126022 20.44619354 172.87991302 20.44250488 174.14579773 C20.44870346 175.22372086 20.45490204 176.30164398 20.46128845 177.41223145 C19.85787306 181.04974093 18.50835531 182.70929111 15.97595215 185.3379364 C13.01626167 186.81778164 10.33852927 186.49800552 7.03527832 186.5308075 C6.32125351 186.53898499 5.6072287 186.54716248 4.87156677 186.55558777 C2.5040267 186.58043942 0.13654657 186.5969572 -2.2310791 186.6113739 C-3.03941381 186.61669758 -3.84774853 186.62202126 -4.68057823 186.62750626 C-8.95920234 186.65423704 -13.23779728 186.673612 -17.51647949 186.68803406 C-21.93526554 186.70468076 -26.35330558 186.74945809 -30.77180958 186.8004055 C-34.16990513 186.83406645 -37.56782336 186.84561015 -40.96607018 186.85126114 C-42.59478137 186.85797702 -44.22348077 186.87320805 -45.8520298 186.89715195 C-48.13370109 186.92878391 -50.41335732 186.92884452 -52.69519043 186.9214325 C-54.6413903 186.93356277 -54.6413903 186.93356277 -56.62690735 186.94593811 C-60.889212 186.18309403 -62.33228075 184.64888976 -65.02404785 181.3379364 C-66.39566192 178.59470826 -66.1639137 176.38574301 -66.1817627 173.31523132 C-66.19202484 172.05019272 -66.20228699 170.78515411 -66.21286011 169.48178101 C-66.21629803 168.80362524 -66.21973595 168.12546947 -66.22327805 167.42676353 C-66.23506632 165.30382324 -66.2545197 163.18108645 -66.27639771 161.05822754 C-66.33800933 155.02189431 -66.39201752 148.98558081 -66.42541504 142.94902039 C-66.44639077 139.25718472 -66.4817191 135.56571833 -66.52617264 131.87409401 C-66.54031265 130.46877205 -66.54905058 129.06338473 -66.55222702 127.65799522 C-66.55714946 125.68819169 -66.58194163 123.71846837 -66.60754395 121.74882507 C-66.6156308 120.62900742 -66.62371765 119.50918976 -66.63204956 118.35543823 C-67.07439991 114.95033926 -67.9679615 113.06789037 -70.02404785 110.3379364 C-74.61543548 108.04224259 -78.1086916 107.98197606 -83.02404785 109.3379364 C-90.08266343 113.62011007 -95.8503294 119.79745477 -101.64904785 125.5879364 C-102.56428223 126.47867859 -103.4795166 127.36942078 -104.42248535 128.28715515 C-112.35752334 136.18779269 -119.12950892 143.92771797 -119.16207886 155.52165222 C-119.1675322 156.56999237 -119.17298553 157.61833252 -119.17860413 158.69844055 C-119.17964645 159.84339996 -119.18068878 160.98835937 -119.1817627 162.16801453 C-119.18684341 163.37827301 -119.19192413 164.58853149 -119.19715881 165.83546448 C-119.20786539 168.46657771 -119.2168659 171.09763825 -119.22327805 173.72875977 C-119.23399092 177.89943104 -119.25424748 182.07002211 -119.27639771 186.24064636 C-119.33820181 198.10018711 -119.39221093 209.95972386 -119.42541504 221.81938171 C-119.44383757 228.37079981 -119.47287223 234.92208397 -119.51341975 241.47340345 C-119.53437052 244.93455287 -119.54992982 248.39553435 -119.55222702 251.85675049 C-119.55479985 255.72887356 -119.58039096 259.60066977 -119.60754395 263.47270203 C-119.60303474 265.16585037 -119.60303474 265.16585037 -119.59843445 266.89320374 C-119.79312743 285.6885447 -127.15242804 296.00940213 -140.14904785 308.9004364 C-141.02947754 309.80084656 -141.90990723 310.70125671 -142.8170166 311.62895203 C-144.09898926 312.90995789 -144.09898926 312.90995789 -145.40686035 314.21684265 C-146.17401367 314.985849 -146.94116699 315.75485535 -147.73156738 316.54716492 C-150.33832611 318.58343492 -151.74749349 319.07944568 -155.02404785 319.3379364 C-165.22079726 314.10101159 -173.96486292 302.72558089 -181.97717285 294.7207489 C-183.6074625 293.09689776 -185.23789718 291.4731922 -186.86846924 289.84962463 C-190.27088528 286.45912948 -193.66919803 283.06458171 -197.06506348 279.66752625 C-201.4011422 275.3312439 -205.75084518 271.0089119 -210.10417557 266.68995857 C-213.47063831 263.34580133 -216.82790246 259.99252377 -220.18270111 256.63666916 C-221.78214354 255.03957452 -223.38480161 253.44569309 -224.99082184 251.85521317 C-227.23977678 249.62600413 -229.47552929 247.38429398 -231.70861816 245.13920593 C-232.36329071 244.4957724 -233.01796326 243.85233887 -233.69247437 243.18940735 C-242.44936968 234.31334238 -247.99724831 224.12022026 -248.52404785 211.5879364 C-248.09377541 194.24608636 -237.44937098 183.44300817 -225.7935791 171.89628601 C-224.77884753 170.88376106 -223.76456809 169.87078283 -222.7507019 168.85739136 C-220.58255201 166.69215383 -218.41130944 164.53008582 -216.23751831 162.37051201 C-212.7937894 158.94923217 -209.3573302 155.52071025 -205.92175293 152.09124756 C-200.48360913 146.66444537 -195.04080896 141.2423415 -189.5959177 135.82231003 C-179.8509175 126.12173189 -170.11152413 116.41553264 -160.37740231 106.70403868 C-156.9674161 103.30241083 -153.55464315 99.90361189 -150.13952637 96.50713527 C-148.00929489 94.38761782 -145.88115174 92.26601238 -143.75349808 90.14390755 C-142.30980763 88.70528905 -140.86355683 87.26924133 -139.41720581 85.83329773 C-134.99181065 81.41557183 -130.72490227 76.94098475 -126.65181732 72.19700146 C-123.91839867 69.07518157 -120.99651243 66.14645456 -118.06994629 63.20683289 C-117.41359695 62.54391235 -116.75724762 61.88099182 -116.08100891 61.19798279 C-113.93467472 59.03213661 -111.78451703 56.8701483 -109.63342285 54.70903015 C-108.89232521 53.96385698 -108.15122757 53.21868382 -107.38767242 52.45092964 C-103.46815376 48.51064944 -99.54543634 44.57358496 -95.62023926 40.63896179 C-91.58952482 36.59717312 -87.57063124 32.54383841 -83.55425644 28.48780727 C-80.44150416 25.34880466 -77.31979771 22.21882117 -74.19568634 19.0911274 C-72.71090854 17.60150953 -71.22948151 16.10854327 -69.75164032 14.61204338 C-49.84729167 -5.52801196 -26.38326675 -18.66289538 0 0 Z " fill="#2765FE" transform="translate(539.0240478515625,301.6620635986328)"/>
<path d="M0 0 C2.8990182 2.0281575 5.2959621 4.48599743 7.76782227 7.00732422 C8.51023163 7.74082596 9.25264099 8.4743277 10.01754761 9.23005676 C12.46566725 11.6568847 14.89131265 14.10486574 17.31640625 16.5546875 C19.01743767 18.25421593 20.71943312 19.95277996 22.42234802 21.65042114 C25.99007012 25.21380979 29.54697492 28.78756391 33.09643555 32.36914062 C37.62931332 36.94166131 42.18614048 41.48937867 46.75123692 46.02970695 C50.27199786 49.53622344 53.78043869 53.05486368 57.28529167 56.57727432 C58.95977439 58.25757783 60.63779272 59.93436608 62.31949043 61.60744858 C85.1850517 84.39485999 85.1850517 84.39485999 85.375 102.25 C85.15781412 117.93392297 77.56003678 126.7494841 66.92651367 137.28466797 C65.89252187 138.31645606 64.85897961 139.34869481 63.82585144 140.38134766 C61.60689623 142.59737816 59.38483149 144.81022484 57.16026878 147.02062607 C53.63701594 150.52152496 50.12094498 154.02957857 46.60578918 157.53860474 C41.04003543 163.09299109 35.4696297 168.64268485 29.89716178 174.19033444 C19.93047229 184.11270056 9.9692968 194.04059421 0.01343137 203.97382081 C-3.47600382 207.45489046 -6.96822716 210.93313087 -10.46278155 214.40906119 C-12.64436476 216.57993159 -14.82386081 218.75288882 -17.00286674 220.92634583 C-18.00687385 221.92690948 -19.01175007 222.92660199 -20.01760101 223.92531204 C-24.98862872 228.86185061 -29.82243722 233.83772091 -34.3849802 239.15466309 C-37.08769921 242.24281541 -39.98004172 245.13572941 -42.87817383 248.03930664 C-43.52637589 248.6924736 -44.17457794 249.34564056 -44.84242249 250.01860046 C-46.96122404 252.15185937 -49.08376719 254.28133945 -51.20703125 256.41015625 C-51.93834448 257.14429686 -52.66965771 257.87843746 -53.42313194 258.63482475 C-57.28988275 262.51649772 -61.15944813 266.39533782 -65.03149414 270.27172852 C-69.00897591 274.25469885 -72.97708829 278.24686791 -76.94307423 282.24128056 C-80.01540106 285.33231093 -83.09449314 288.41653545 -86.17542076 291.49899101 C-87.64059034 292.96716787 -89.10328208 294.43782218 -90.56333351 295.91108894 C-104.04349934 309.5045728 -116.11393625 320.91060568 -136.1875 321.3125 C-143.2290389 321.25727224 -148.69470991 320.09122988 -155 317 C-155.6703125 316.67257812 -156.340625 316.34515625 -157.03125 316.0078125 C-171.83952245 307.69333166 -183.99791783 292.31791575 -195.98583984 280.41918945 C-198.17548828 278.24754623 -200.37341671 276.08480629 -202.57861328 273.92895508 C-205.27062888 271.29702997 -207.94771455 268.65076417 -210.61470795 265.99349403 C-211.62551156 264.99123023 -212.6414284 263.99409497 -213.66257477 263.00237083 C-215.08097972 261.62278202 -216.47899466 260.22232271 -217.87597656 258.82104492 C-219.0741098 257.63837288 -219.0741098 257.63837288 -220.29644775 256.43180847 C-222.46976637 253.32941191 -222.60436869 251.71548212 -222 248 C-220.52182007 245.84066772 -220.52182007 245.84066772 -218.42333984 243.83740234 C-217.64187592 243.07575775 -216.86041199 242.31411316 -216.05526733 241.52938843 C-215.19913849 240.72304962 -214.34300964 239.91671082 -213.4609375 239.0859375 C-212.58732574 238.23504547 -211.71371399 237.38415344 -210.81362915 236.50747681 C-207.07864543 232.8703562 -203.30975332 229.2691469 -199.54248047 225.66552734 C-196.79430208 223.02675783 -194.06498061 220.36947061 -191.3359375 217.7109375 C-190.06996231 216.51964737 -190.06996231 216.51964737 -188.77841187 215.30429077 C-180.68222685 207.40858757 -175.3704105 198.59262534 -174.87542725 187.11021423 C-174.87496399 186.10825516 -174.87450073 185.10629608 -174.87402344 184.07397461 C-174.87021667 182.92936264 -174.86640991 181.78475067 -174.86248779 180.60545349 C-174.86146057 179.38342728 -174.86043335 178.16140106 -174.859375 176.90234375 C-174.84105859 174.30142345 -174.82148937 171.70051173 -174.80078125 169.09960938 C-174.77040053 165.00897064 -174.74768684 160.91864322 -174.74951172 156.82788086 C-174.75045029 152.8731946 -174.71169783 148.91933592 -174.671875 144.96484375 C-174.6789447 143.7407933 -174.6860144 142.51674286 -174.69329834 141.25559998 C-174.67688293 140.11414017 -174.66046753 138.97268036 -174.64355469 137.79663086 C-174.63990906 136.79546738 -174.63626343 135.79430389 -174.63250732 134.76280212 C-173.73523019 130.84348123 -172.20034639 129.38678317 -169 127 C-165.58508301 126.36508179 -165.58508301 126.36508179 -161.62695312 126.35302734 C-160.54062843 126.33988495 -160.54062843 126.33988495 -159.43235779 126.32647705 C-157.04803842 126.30454248 -154.66558687 126.31901245 -152.28125 126.3359375 C-150.61885219 126.3325676 -148.95645678 126.32771353 -147.29406738 126.32144165 C-143.81380707 126.31407845 -140.33418938 126.32475733 -136.85400391 126.34814453 C-132.39813334 126.3766328 -127.94376853 126.36022575 -123.48795319 126.33028221 C-120.0563019 126.3121938 -116.62500625 126.31797416 -113.19334412 126.33092117 C-111.55073365 126.33425096 -109.90809065 126.33018309 -108.26551819 126.31852341 C-105.96716096 126.30578815 -103.67122426 126.32522391 -101.37304688 126.35302734 C-100.06686401 126.35700531 -98.76068115 126.36098328 -97.41491699 126.36508179 C-93.04729724 127.1771312 -91.58389512 128.41711244 -89 132 C-88.38768005 135.1424408 -88.38768005 135.1424408 -88.40405273 138.71459961 C-88.3999942 139.36893478 -88.39593567 140.02326996 -88.39175415 140.69743347 C-88.38625464 142.11114968 -88.39219578 143.5249476 -88.40841484 144.93858147 C-88.4339099 147.18013979 -88.42901455 149.41986593 -88.41651917 151.66151428 C-88.39580215 156.42037901 -88.41543119 161.17867298 -88.4375 165.9375 C-88.45863847 171.4508858 -88.46310925 176.96367912 -88.43699837 182.47705269 C-88.4336487 184.67872665 -88.45481936 186.87925655 -88.47740173 189.08079529 C-88.47488907 190.4392013 -88.47132765 191.79760591 -88.46655273 193.15600586 C-88.4758506 194.92541786 -88.4758506 194.92541786 -88.4853363 196.73057556 C-87.89432777 200.71185147 -86.4911439 202.87538462 -84 206 C-80.35781349 208.10863429 -77.16191328 208.50962203 -73 208 C-68.51195274 205.33479756 -64.80249221 202.122049 -61.12109375 198.45703125 C-60.58654068 197.92913498 -60.05198761 197.40123871 -59.50123596 196.85734558 C-58.378505 195.74468139 -57.25841652 194.62934503 -56.14086914 193.51147461 C-54.44897561 191.823946 -52.74174148 190.15307471 -51.03320312 188.48242188 C-45.28492009 182.792572 -40.30592576 177.51191094 -37 170 C-36.67 169.34 -36.34 168.68 -36 168 C-35.90135998 166.27405461 -35.86657879 164.54430741 -35.86196899 162.81555176 C-35.85651566 161.71658569 -35.85106232 160.61761963 -35.84544373 159.48535156 C-35.8444014 158.27395508 -35.84335907 157.06255859 -35.84228516 155.81445312 C-35.83448558 153.86222532 -35.82668197 151.90999753 -35.81872725 149.95777035 C-35.81100491 147.85462515 -35.80562683 145.75148434 -35.80076981 143.64833069 C-35.7900871 139.25993858 -35.76983847 134.87162351 -35.74765015 130.48327637 C-35.68574494 118.00255897 -35.63181331 105.52184482 -35.59863281 93.04101562 C-35.58023572 86.15123451 -35.55123094 79.26158133 -35.5106281 72.37189436 C-35.48963244 68.72857449 -35.47411157 65.08541539 -35.47182083 61.44203186 C-35.46925663 57.36807765 -35.44370704 53.29456742 -35.41650391 49.22070312 C-35.42101311 47.42789917 -35.42101311 47.42789917 -35.4256134 45.59887695 C-35.22921151 25.74222694 -24.48785879 15.39705397 -11.06640625 1.93359375 C-7.26059918 -1.62760568 -5.01433439 -1.29948043 0 0 Z " fill="#5F34FE" transform="translate(648,410)"/>
<path d="M0 0 C3.8239492 1.57877433 6.23642099 3.99501713 9.13574219 6.90869141 C9.63375839 7.40641556 10.1317746 7.90413971 10.6448822 8.41694641 C12.28366733 10.0571207 13.91526134 11.70425661 15.546875 13.3515625 C16.68415347 14.49257256 17.8218754 15.63314077 18.96002197 16.77328491 C21.94989979 19.77078762 24.93372191 22.77424851 27.9163208 25.7789917 C30.96271321 28.84586712 34.01479703 31.90706694 37.06640625 34.96875 C43.04985434 40.97362783 49.02691663 46.98481232 55 53 C54.34 53.66 53.68 54.32 53 55 C52.28714844 54.20335937 51.57429687 53.40671875 50.83984375 52.5859375 C44.76414797 45.75777651 44.76414797 45.75777651 38.0625 39.5625 C35.24176599 37.20229399 33.22953065 34.89838984 31 32 C29.34722567 30.31955585 27.67794672 28.65530975 26 27 C25.01478264 26.02094582 24.03001728 25.04143662 23.0456543 24.06152344 C22.5254924 23.54458923 22.00533051 23.02765503 21.46940613 22.49505615 C19.14925217 20.18830852 16.8317816 17.87887261 14.5144043 15.56933594 C13.28839259 14.34840326 12.06149248 13.12836209 10.83374023 11.90917969 C9.05740786 10.14489585 7.28425375 8.37747286 5.51171875 6.609375 C4.95868576 6.0615033 4.40565277 5.51363159 3.83586121 4.94915771 C2.5381235 3.65161433 1.26611942 2.32841394 0 1 C0 0.67 0 0.34 0 0 Z " fill="#2C75F6" transform="translate(541,305)"/>
<path d="M0 0 C2.41421027 2.1474467 3.45220503 3.79502197 4.375 6.875 C5.75825815 10.89902371 7.85590645 13.11083295 11 16 C11 16.66 11 17.32 11 18 C11.66 18 12.32 18 13 18 C14.55078125 19.57421875 14.55078125 19.57421875 16.3125 21.6875 C20.91333706 27.08354346 25.86539996 31.82274452 31.23046875 36.44921875 C32.52866688 37.58693322 33.7794033 38.7794033 35 40 C34.01 40.33 33.02 40.66 32 41 C28.53614324 37.63609916 25.08647408 34.25845013 21.6484375 30.86816406 C20.48055392 29.72021682 19.30908354 28.57590551 18.13378906 27.43554688 C0.54506343 10.35620512 0.54506343 10.35620512 0 0 Z " fill="#2A72F2" transform="translate(293,523)"/>
<path d="M0 0 C3 0 3 0 4.61328125 1.57421875 C5.45439453 2.62029297 5.45439453 2.62029297 6.3125 3.6875 C8.45256988 6.25107845 10.50123476 8.55717468 13.125 10.625 C16 13 16 13 18.4375 15.9375 C20.88173102 18.85865414 23.38258846 21.13254094 26.29296875 23.5546875 C29.67507388 26.41825477 32.54288972 29.31433459 35 33 C32 33 32 33 30.4243927 31.79188538 C29.86257797 31.22642502 29.30076324 30.66096466 28.72192383 30.07836914 C27.76126762 29.12221458 27.76126762 29.12221458 26.78120422 28.14674377 C26.09672714 27.44991989 25.41225006 26.75309601 24.70703125 26.03515625 C24.00100266 25.32725449 23.29497406 24.61935272 22.56755066 23.88999939 C21.07545511 22.39117539 19.5869648 20.88875507 18.10180664 19.38305664 C15.81844039 17.06852148 13.52456176 14.76484109 11.22851562 12.46289062 C9.78322816 11.00843429 8.33854571 9.55337645 6.89453125 8.09765625 C6.20398148 7.4028566 5.5134317 6.70805695 4.80195618 5.99220276 C4.17097519 5.35161423 3.5399942 4.7110257 2.88989258 4.05102539 C2.33046463 3.48476944 1.77103668 2.91851349 1.19465637 2.33509827 C0 1 0 1 0 0 Z " fill="#663AF2" transform="translate(448,685)"/>
<path d="M0 0 C0 4.07587476 -1.25991672 4.98590839 -4 8 C-5.85786675 9.66989435 -7.75469747 11.28953541 -9.65234375 12.9140625 C-15.60143227 18.19994148 -21.32907182 23.89575165 -26.4375 30 C-28.52808151 32.44751006 -30.32750327 34.25259829 -33 36 C-33.66 35.67 -34.32 35.34 -35 35 C-23.45 23.45 -11.9 11.9 0 0 Z " fill="#2970F0" transform="translate(483,303)"/>
<path d="M0 0 C6.84857308 3.11990551 12.03826469 8.71266954 16.67578125 14.51953125 C18.12517606 16.26426365 18.12517606 16.26426365 21 18 C20.67 18.99 20.34 19.98 20 21 C17.14852788 18.17317491 14.30029574 15.34313037 11.45507812 12.51000977 C10.48592079 11.54589335 9.51586952 10.58267471 8.54492188 9.62036133 C7.15262088 8.24013641 5.7637538 6.85645022 4.375 5.47265625 C3.53710938 4.64000244 2.69921875 3.80734863 1.8359375 2.94946289 C0 1 0 1 0 0 Z " fill="#693CF8" transform="translate(427,664)"/>
<path d="M0 0 C0.66 0.33 1.32 0.66 2 1 C-3.28 6.28 -8.56 11.56 -14 17 C-14 13.00102358 -12.64683965 11.93298448 -10 9 C-8.34997172 7.64613064 -6.6825613 6.31321858 -5 5 C-3.31471312 3.35216394 -1.64302953 1.68997323 0 0 Z " fill="#6A3BFC" transform="translate(573,687)"/>
<path d="M0 0 C0 4.07211906 -1.5535064 5.1414603 -4.25 8.125 C-5.43335938 9.45917969 -5.43335938 9.45917969 -6.640625 10.8203125 C-8.90987032 12.9167345 -9.99179674 13.65502256 -13 14 C-8.88380164 9.08064098 -4.59589638 4.47352044 0 0 Z " fill="#6239EF" transform="translate(635,414)"/>
<path d="M0 0 C0 3.63053243 -1.2278255 4.95750337 -3.5546875 7.63671875 C-5.49136818 9.46347972 -7.46012234 10.27432067 -10 11 C-6.79239749 7.19364503 -3.59253891 3.45436433 0 0 Z " fill="#5E36E5" transform="translate(450,634)"/>
<path d="M0 0 C0.33 0.66 0.66 1.32 1 2 C-0.375 4 -0.375 4 -2 6 C-2.66 6 -3.32 6 -4 6 C-4 6.66 -4 7.32 -4 8 C-5.32 8.33 -6.64 8.66 -8 9 C-7.04270084 7.87411986 -6.08412105 6.7493285 -5.125 5.625 C-4.59132813 4.99851562 -4.05765625 4.37203125 -3.5078125 3.7265625 C-2.38567993 2.44163349 -1.20628025 1.20628025 0 0 Z " fill="#2769E7" transform="translate(436,350)"/>
<path d="M0 0 C0 3.39593478 -0.52165948 4.06619881 -2.5 6.6875 C-2.9640625 7.31011719 -3.428125 7.93273437 -3.90625 8.57421875 C-4.2671875 9.04472656 -4.628125 9.51523437 -5 10 C-5.66 9.67 -6.32 9.34 -7 9 C-5.44499019 5.18315774 -2.96404505 2.80804268 0 0 Z " fill="#673BF8" transform="translate(467,617)"/>
<path d="M0 0 C0 4.31618166 -2.13270348 5.92789659 -5 9 C-5.66 9 -6.32 9 -7 9 C-5.44499019 5.18315774 -2.96404505 2.80804268 0 0 Z " fill="#2A71F5" transform="translate(307,480)"/>
</svg>
